{"accessors":[{"bufferView":3,"componentType":5126,"count":8895,"max":[3.8455941677093506,70.58000183105469,4.09433126449585],"min":[-3.997379779815674,54.51508331298828,-6.216587543487549],"type":"VEC3"},{"bufferView":3,"byteOffset":106740,"componentType":5126,"count":8895,"max":[0.9999995827674866,0.9994773864746094,0.999989926815033],"min":[-0.9999998211860657,-0.9999958276748657,-0.9998809695243835],"type":"VEC3"},{"bufferView":2,"componentType":5126,"count":8895,"max":[0.5102577209472656,0.9912109375],"min":[0.00439453125,0.17760562896728516],"type":"VEC2"},{"bufferView":1,"componentType":5125,"count":29928,"type":"SCALAR"},{"bufferView":3,"byteOffset":213480,"componentType":5126,"count":10775,"max":[23.1912841796875,61.39821243286133,5.565790176391602],"min":[-23.11948585510254,-0.2177363932132721,-7.161256313323975],"type":"VEC3"},{"bufferView":3,"byteOffset":342780,"componentType":5126,"count":10775,"max":[0.9999988079071045,0.9999715089797974,0.9999822378158569],"min":[-0.9999988079071045,-1,-0.9995713829994202],"type":"VEC3"},{"bufferView":2,"byteOffset":71160,"componentType":5126,"count":10775,"max":[0.6361093521118164,0.9912109375],"min":[0.0045706164091825485,0.22838687896728516],"type":"VEC2"},{"bufferView":1,"byteOffset":119712,"componentType":5125,"count":33210,"type":"SCALAR"},{"bufferView":3,"byteOffset":472080,"componentType":5126,"count":109,"max":[1.8384766578674316,65.49640655517578,3.122065544128418],"min":[-1.8502343893051147,64.12106323242188,2.8662400245666504],"type":"VEC3"},{"bufferView":3,"byteOffset":473388,"componentType":5126,"count":109,"max":[0.0032433888409286737,0.19231076538562775,0.9886130094528198],"min":[-0.004675013013184071,-0.19455201923847198,-0.9886054396629333],"type":"VEC3"},{"bufferView":2,"byteOffset":157360,"componentType":5126,"count":109,"max":[1,1],"min":[0,0],"type":"VEC2"},{"bufferView":1,"byteOffset":252552,"componentType":5125,"count":303,"type":"SCALAR"},{"bufferView":5,"componentType":5126,"count":56,"max":[1,0.9156041741371155,0.6380621194839478,0,0.6380620002746582,1.0000001192092896,0.9916318655014038,0,0.9156041145324707,0.995270311832428,1,0,34.04136276245117,39.07857894897461,20.343530654907227,1],"min":[-0.9868972897529602,-0.9156044125556946,-0.6117041707038879,0,-0.6117044687271118,-0.9996763467788696,-0.7774755358695984,0,-0.9156041741371155,-0.15846438705921173,-0.9996891617774963,0,-33.91999816894531,-65.08076477050781,-49.95915985107422,1],"type":"MAT4"},{"bufferView":0,"componentType":5123,"count":8895,"type":"VEC4"},{"bufferView":4,"componentType":5126,"count":8895,"max":[1,0.5,0.3146466016769409,0.07332181930541992],"min":[0.359078586101532,0,0,0],"type":"VEC4"},{"bufferView":0,"byteOffset":71160,"componentType":5123,"count":10775,"type":"VEC4"},{"bufferView":4,"byteOffset":142320,"componentType":5126,"count":10775,"max":[1,0.4994398355484009,0.31259819865226746,0.1128370463848114],"min":[0.35661429166793823,0,0,0],"type":"VEC4"},{"bufferView":0,"byteOffset":157360,"componentType":5123,"count":109,"type":"VEC4"},{"bufferView":4,"byteOffset":314720,"componentType":5126,"count":109,"max":[1,0,0,0],"min":[1,0,0,0],"type":"VEC4"}],"asset":{"extras":{"author":"Scott.Packer (https://sketchfab.com/Scott.Packer)","license":"CC-BY-4.0 (http://creativecommons.org/licenses/by/4.0/)","source":"https://sketchfab.com/3d-models/john-lennon-sgt-pepper-02-58f4414db4ac4cc39bd8d7d20a7726a5","title":"John Lennon Sgt Pepper 02"},"generator":"Sketchfab-12.38.0","version":"2.0"},"bufferViews":[{"buffer":0,"byteLength":158232,"byteStride":8,"name":"shortBufferViews","target":34962},{"buffer":0,"byteLength":253764,"byteOffset":158232,"name":"floatBufferViews","target":34963},{"buffer":0,"byteLength":158232,"byteOffset":411996,"byteStride":8,"name":"floatBufferViews","target":34962},{"buffer":0,"byteLength":474696,"byteOffset":570228,"byteStride":12,"name":"floatBufferViews","target":34962},{"buffer":0,"byteLength":316464,"byteOffset":1044924,"byteStride":16,"name":"floatBufferViews","target":34962},{"buffer":0,"byteLength":3584,"byteOffset":1361388,"name":"floatBufferViews"}],"buffers":[{"byteLength":1364972,"uri":"data:application/octet-stream;base64,"}],"images":[{"uri":"data:application/octet-stream;base64,"},{"uri":"data:application/octet-stream;base64,"},{"uri":"data:application/octet-stream;base64,"}],"materials":[{"doubleSided":true,"name":"Head","pbrMetallicRoughness":{"baseColorTexture":{"index":0},"metallicFactor":0,"roughnessFactor":0.8239417257461427}},{"doubleSided":true,"name":"Body","pbrMetallicRoughness":{"baseColorTexture":{"index":1},"metallicFactor":0,"roughnessFactor":0.8239417257461427}},{"doubleSided":true,"name":"Lenses","pbrMetallicRoughness":{"baseColorTexture":{"index":2},"metallicFactor":0,"roughnessFactor":0.8239417257461427}}],"meshes":[{"name":"0","primitives":[{"attributes":{"JOINTS_0":13,"NORMAL":1,"POSITION":0,"TEXCOORD_0":2,"WEIGHTS_0":14},"indices":3,"material":0,"mode":4}]},{"name":"1","primitives":[{"attributes":{"JOINTS_0":15,"NORMAL":5,"POSITION":4,"TEXCOORD_0":6,"WEIGHTS_0":16},"indices":7,"material":1,"mode":4}]},{"name":"2","primitives":[{"attributes":{"JOINTS_0":17,"NORMAL":9,"POSITION":8,"TEXCOORD_0":10,"WEIGHTS_0":18},"indices":11,"material":2,"mode":4}]}],"nodes":[{"children":[1],"matrix":[1,0,0,0,0,2.220446049250313e-16,-1,0,0,1,2.220446049250313e-16,0,0,0,0,1],"name":"Sketchfab_model"},{"children":[2],"matrix":[1,0,0,0,0,0,1,0,0,-1,0,0,0,0,0,1],"name":"dcd233dcbb774928b91bed54a42458e7.fbx"},{"children":[3],"name":"RootNode"},{"children":[4],"matrix":[1,0,0,0,0,-1.6292067939183141e-7,-0.9999999999999868,0,0,0.9999999999999868,-1.6292067939183141e-7,0,0,0,0,1],"name":"Armature"},{"children":[5,62,63,64,61],"name":"Object_4"},{"children":[6],"name":"_rootJoint"},{"children":[7,53,57],"name":"Hips_01","rotation":[0.7071067094802856,0,0,0.7071068286895752],"scale":[1,0.9999999403953552,0.9999999403953552],"translation":[0.03590083122253418,0.5315862894058228,41.086463928222656]},{"children":[8],"name":"Spine_02","rotation":[-0.07948359847068787,0,0,0.9968361854553223],"scale":[1,1.0000001192092896,1],"translation":[5.21540641784668e-8,3.5023272037506104,-0.5390836000442505]},{"children":[9,15,34],"name":"Chest_03","rotation":[-7.450580596923828e-8,9.540979945053052e-18,1.3179703162169432e-10,1],"translation":[3.725290298461914e-9,3.9689109325408936,-3.5762786865234375e-7]},{"children":[10],"name":"Neck_04","rotation":[0.2185157984495163,2.412589746036975e-11,-3.6496367039617894e-10,0.9758334159851074],"translation":[3.3529917731200953e-10,9.63878059387207,2.384185791015625e-7]},{"children":[11,12,13,14],"name":"Head_00","rotation":[-0.1402616649866104,-3.803240014588205e-11,2.111486402389673e-10,0.9901144504547119],"scale":[1,0.9999999403953552,0.9999999403953552],"translation":[-1.8522010591937033e-9,2.8110151290893555,4.76837158203125e-7]},{"name":"Eye L_05","rotation":[-4.887729043564962e-42,3.605959049985078e-18,1.3554164686157638e-24,1],"translation":[1.1869571208953857,4.352241039276123,4.135992050170898]},{"name":"Eye R_06","rotation":[-4.887729043564962e-42,3.605959049985078e-18,1.3554164686157638e-24,1],"translation":[-1.2774755954742432,4.352241039276123,4.135992050170898]},{"name":"LeftEye_07","rotation":[-4.887729043564962e-42,3.605959049985078e-18,1.3554164686157638e-24,1],"translation":[1.1924376487731934,4.3557658195495605,4.132417678833008]},{"name":"RightEye_08","rotation":[-4.887729043564962e-42,3.605959049985078e-18,1.3554164686157638e-24,1],"translation":[-1.2784961462020874,4.355811595916748,4.132286548614502]},{"children":[16],"name":"Left shoulder_09","rotation":[0.6748474836349487,0.4203314185142517,0.49317029118537903,-0.3531082570552826],"translation":[2.2043073177337646,8.699548721313477,-0.14652442932128906]},{"children":[17],"name":"Left arm_010","rotation":[-0.15428473055362701,-0.19824644923210144,0.14086365699768066,0.9576283097267151],"translation":[0.0000016689300537109375,4.7891387939453125,-0.0000032186508178710938]},{"children":[18],"name":"Left elbow_011","rotation":[-0.0837327167391777,-0.008627425879240036,-0.06403782963752747,0.994391143321991],"scale":[1,1,1.0000001192092896],"translation":[-4.76837158203125e-7,9.064774513244629,4.76837158203125e-7]},{"children":[19,22,25,28,31],"name":"Left wrist_012","rotation":[-0.046738285571336746,-0.03494192287325859,-0.0016300760908052325,0.9982945322990417],"scale":[1,1.0000001192092896,1.0000001192092896],"translation":[-0.000003337860107421875,8.608505249023438,1.1920928955078125e-7]},{"children":[20],"name":"Thumb0_L_013","rotation":[-0.2549188733100891,-0.371420294046402,0.17199215292930603,0.8760605454444885],"scale":[1,0.9999998807907104,1],"translation":[-0.23512649536132812,1.702455997467041,-1.2060043811798096]},{"children":[21],"name":"Thumb1_L_014","rotation":[-0.0014286349760368466,-0.04207589104771614,0.022229569032788277,0.998866081237793],"scale":[0.9999999403953552,1.0000001192092896,0.9999999403953552],"translation":[-5.094334483146667e-7,1.6796411275863647,-0.0000016838312149047852]},{"name":"Thumb2_L_015","rotation":[0.0012855299282819033,0.037425197660923004,-0.019771885126829147,0.9991030097007751],"translation":[0.0000015292316675186157,1.5718703269958496,-1.1920928955078125e-7]},{"children":[23],"name":"IndexFinger1_L_016","rotation":[0.0002998008276335895,0.04091174155473709,-0.04068703204393387,0.9983339905738831],"scale":[0.9999999403953552,0.9999998807907104,0.9999998211860657],"translation":[0.4899868965148926,5.074442386627197,-1.3507564067840576]},{"children":[24],"name":"IndexFinger2_L_017","rotation":[-0.05476957559585571,-0.20746546983718872,0.15875588357448578,0.9637193083763123],"scale":[1,1,0.9999999403953552],"translation":[0.0000024437904357910156,1.2117209434509277,0.0000011622905731201172]},{"name":"IndexFinger3_L_018","rotation":[0.0025943059008568525,-0.009659242816269398,0.009504594840109348,0.9999048113822937],"scale":[1,1,1.0000001192092896],"translation":[0.0000017285346984863281,1.1377848386764526,5.960464477539063e-8]},{"children":[26],"name":"MiddleFinger1_L_019","rotation":[0.01037850696593523,-0.010596232488751411,0.01872156746685505,0.999714732170105],"scale":[1,0.9999999403953552,0.9999998807907104],"translation":[0.23379644751548767,5.05794095993042,-0.4125153720378876]},{"children":[27],"name":"MiddleFinger2_L_020","rotation":[-0.03755335882306099,-0.1735534369945526,0.14996327459812164,0.9726150035858154],"scale":[1,1.0000001192092896,1],"translation":[-0.000001475214958190918,1.4440884590148926,-3.5762786865234375e-7]},{"name":"MiddleFinger3_L_021","rotation":[0.003777299774810672,-0.06998391449451447,0.06720679253339767,0.995274543762207],"scale":[1.0000001192092896,1,1],"translation":[-0.0000012256205081939697,1.3239892721176147,8.344650268554688e-7]},{"children":[29],"name":"RingFinger1_L_022","rotation":[0.0030157756991684437,-0.025558551773428917,0.027924900874495506,0.9992786645889282],"scale":[1,0.9999999403953552,0.9999998807907104],"translation":[-0.15538662672042847,5.21449089050293,0.5546145439147949]},{"children":[30],"name":"RingFinger2_L_023","rotation":[-0.030362647026777267,-0.1362297534942627,0.11555008590221405,0.9834468960762024],"scale":[1,0.9999999403953552,1],"translation":[-0.0000017285346984863281,1.26222825050354,-0.0000017881393432617188]},{"name":"RingFinger3_L_024","rotation":[0.014878308400511742,-0.16869708895683289,0.1644430309534073,0.9717398881912231],"scale":[0.9999999403953552,0.9999998807907104,1],"translation":[5.066394805908203e-7,1.1527094841003418,-9.5367431640625e-7]},{"children":[32],"name":"LittleFinger1_L_025","rotation":[0.08400823175907135,0.06352788954973221,0.0022073141299188137,0.9944356083869934],"scale":[1,0.9999999403953552,0.9999998807907104],"translation":[-0.6264410018920898,4.6145806312561035,1.1835603713989258]},{"children":[33],"name":"LittleFinger2_L_026","rotation":[-0.05062773823738098,-0.13379721343517303,0.11856475472450256,0.9825871586799622],"scale":[1,0.9999998807907104,1.0000001192092896],"translation":[-1.1920928955078125e-7,1.0352407693862915,2.384185791015625e-7]},{"name":"LittleFinger3_L_027","rotation":[-0.014029287733137608,-0.07659582793712616,0.07646580040454865,0.994026780128479],"translation":[0.0000022649765014648438,0.9293095469474792,8.344650268554688e-7]},{"children":[35],"name":"Right shoulder_028","rotation":[0.6752684712409973,-0.4196015000343323,-0.49231401085853577,-0.35436445474624634],"scale":[1.000000238418579,1.0000001192092896,1],"translation":[-2.2043070793151855,8.700867652893066,-0.15474414825439453]},{"children":[36],"name":"Right arm_029","rotation":[-0.15673914551734924,0.1984328031539917,-0.13745377957820892,0.9576866626739502],"scale":[1,0.9999998807907104,0.9999999403953552],"translation":[-0.0000019073486328125,4.789139270782471,-0.0000040531158447265625]},{"children":[37],"name":"Right elbow_030","rotation":[-0.07845323532819748,0.008617118932306767,0.05930519476532936,0.9951150417327881],"scale":[0.9999999403953552,1.0000001192092896,1],"translation":[-3.552713678800501e-15,9.062657356262207,-7.152557373046875e-7]},{"children":[38,41,44,47,50],"name":"Right wrist_031","rotation":[-0.03259708359837532,0.0311896950006485,-0.006914128083735704,0.9989578723907471],"scale":[0.9999999403953552,0.9999998211860657,0.9999998807907104],"translation":[-0.0000011920928955078125,8.595986366271973,0.0000022649765014648438]},{"children":[39],"name":"Thumb0_R_032","rotation":[-0.2630783021450043,0.37241050601005554,-0.18233591318130493,0.8711221814155579],"scale":[1.0000001192092896,0.9999998807907104,1],"translation":[0.25860488414764404,1.6891614198684692,-1.2622779607772827]},{"children":[40],"name":"Thumb1_R_033","rotation":[-0.005649350583553314,0.0030509342905133963,-0.0011895137140527368,0.99997878074646],"scale":[0.9999999403953552,0.9999998807907104,1],"translation":[-3.073364496231079e-7,1.6996040344238281,-0.000003978610038757324]},{"name":"Thumb2_R_034","rotation":[-0.02741686999797821,-0.08069884032011032,0.046157486736774445,0.9952916502952576],"translation":[0.0000015497207641601562,1.5039873123168945,-0.0000024139881134033203]},{"children":[42],"name":"IndexFinger1_R_035","rotation":[-0.013238358311355114,-0.014360789209604263,0.025528889149427414,0.9994832873344421],"scale":[1,0.9999999403953552,0.9999999403953552],"translation":[-0.5457051992416382,4.900699138641357,-1.3498094081878662]},{"children":[43],"name":"IndexFinger2_R_036","rotation":[-0.04523163661360741,0.18057319521903992,-0.14526985585689545,0.9717222452163696],"scale":[0.9999999403953552,0.9999999403953552,0.9999997615814209],"translation":[1.1920928955078125e-7,1.2600164413452148,9.685754776000977e-7]},{"name":"IndexFinger3_R_037","rotation":[-0.0010101508814841509,0.04536866769194603,-0.040747079998254776,0.998138427734375],"scale":[1,1,1.0000001192092896],"translation":[0.000005409121513366699,1.167603611946106,-0.0000011473894119262695]},{"children":[45],"name":"MiddleFinger1_R_038","rotation":[-0.023644141852855682,0.03538169339299202,-0.018391046673059464,0.9989248514175415],"scale":[1.0000001192092896,0.9999998211860657,1],"translation":[-0.2711595892906189,4.966763019561768,-0.40483802556991577]},{"children":[46],"name":"MiddleFinger2_R_039","rotation":[-0.03039582446217537,0.16098496317863464,-0.13766074180603027,0.9768364429473877],"scale":[0.9999999403953552,1.0000001192092896,1],"translation":[0.000003337860107421875,1.4159724712371826,-5.364418029785156e-7]},{"name":"MiddleFinger3_R_040","rotation":[0.0016993778990581632,0.05507103353738785,-0.05126669257879257,0.9971640110015869],"scale":[1,1,0.9999999403953552],"translation":[-0.0000020116567611694336,1.3381367921829224,-2.384185791015625e-7]},{"children":[48],"name":"RingFinger1_R_041","rotation":[0.009429463185369968,-0.021433554589748383,0.01501266099512577,0.9996131062507629],"scale":[0.9999999403953552,1,1],"translation":[0.19487428665161133,4.991551399230957,0.4860720634460449]},{"children":[49],"name":"RingFinger2_R_042","rotation":[-0.04566282778978348,0.1650523990392685,-0.13854214549064636,0.9754377007484436],"scale":[0.9999999403953552,1,1],"translation":[0.000003337860107421875,1.2853764295578003,0.0000027418136596679688]},{"name":"RingFinger3_R_043","rotation":[-0.004219620022922754,0.0825766921043396,-0.0775667205452919,0.993552565574646],"scale":[0.9999998807907104,1,1],"translation":[0.0000020265579223632812,1.1715588569641113,1.1920928955078125e-7]},{"children":[51],"name":"LittleFinger1_R_044","rotation":[0.0563528910279274,-0.057687368243932724,0.015903126448392868,0.9966161847114563],"scale":[1,1,0.9999999403953552],"translation":[0.6801652908325195,4.696930885314941,1.2416326999664307]},{"children":[52],"name":"LittleFinger2_R_045","rotation":[-0.05562661588191986,0.1588187962770462,-0.14004658162593842,0.975740373134613],"scale":[1,0.9999998807907104,0.9999999403953552],"translation":[-0.0000021457672119140625,1.0481430292129517,-0.000003337860107421875]},{"name":"LittleFinger3_R_046","rotation":[-0.0026470927987247705,0.009218437597155571,-0.008427130989730358,0.999918520450592],"scale":[1,0.9999997615814209,0.9999998807907104],"translation":[-0.0000025033950805664062,0.8688727021217346,-4.76837158203125e-7]},{"children":[54],"name":"Left leg_047","rotation":[0.9991167783737183,0.020789146423339844,0.020730817690491676,-0.03006213717162609],"scale":[1.0000025033950806,1,1.0000050067901611],"translation":[2.921623706817627,-1.725021243095398,-0.3409789204597473]},{"children":[55],"name":"Left knee_048","rotation":[-0.026975734159350395,-0.03289538994431496,0.03378238528966904,0.9985234141349792],"scale":[0.9999999403953552,1,1],"translation":[-1.2665987014770508e-7,18.744544982910156,2.2351741790771484e-7]},{"children":[56],"name":"Left ankle_049","rotation":[-0.46808576583862305,-0.10596895962953568,0.11848180741071701,0.8692688941955566],"scale":[0.9999998807907104,0.9999999403953552,0.9999999403953552],"translation":[6.705522537231445e-8,17.68008804321289,4.33996319770813e-7]},{"name":"Left toe_050","rotation":[-0.02741054818034172,0.9283556342124939,-0.2750347852706909,-0.24851639568805695],"scale":[1.0000001192092896,1.0000001192092896,1],"translation":[-8.195638656616211e-8,5.908687114715576,-2.9802322387695312e-8]},{"children":[58],"name":"Right leg_051","rotation":[0.999090850353241,-0.020570768043398857,-0.020705165341496468,-0.031077539548277855],"scale":[0.9999940395355225,0.9999999403953552,0.9999878406524658],"translation":[-2.921623706817627,-1.725021243095398,-0.28836768865585327]},{"children":[59],"name":"Right knee_052","rotation":[-0.029659321531653404,0.032915614545345306,-0.03376001864671707,0.9984474778175354],"scale":[0.9999999403953552,1,1],"translation":[4.3213367462158203e-7,18.74683380126953,-2.8312206268310547e-7]},{"children":[60],"name":"Right ankle_053","rotation":[-0.4653698801994324,0.10610311478376389,-0.11819076538085938,0.8707490563392639],"scale":[0.9999999403953552,0.9999998807907104,0.9999999403953552],"translation":[-6.705522537231445e-8,17.67984390258789,1.648440957069397e-7]},{"name":"Right toe_054","rotation":[0.027400167658925056,0.9279661774635315,-0.27639877796173096,0.24845868349075317],"scale":[0.9999998807907104,0.9999997615814209,0.9999999403953552],"translation":[6.332993507385254e-7,5.8826141357421875,1.9371509552001953e-7]},{"matrix":[1,0,0,0,0,6.12323436070991e-17,-1.0000000596046377,0,0,1.0000000596046377,6.12323436070991e-17,0,3.725290298461914e-9,0.000002512314111413616,-3.168501194750206e-8,1],"name":"Object_61"},{"mesh":0,"name":"Object_62","skin":0},{"mesh":1,"name":"Object_63","skin":0},{"mesh":2,"name":"Object_64","skin":0}],"samplers":[{"magFilter":9729,"minFilter":9987,"wrapS":10497,"wrapT":10497}],"scene":0,"scenes":[{"name":"Sketchfab_Scene","nodes":[0]}],"skins":[{"inverseBindMatrices":12,"joints":[5,6,7,8,9,10,11,12,13,14,15,16,17,18,19,20,21,22,23,24,25,26,27,28,29,30,31,32,33,34,35,36,37,38,39,40,41,42,43,44,45,46,47,48,49,50,51,52,53,54,55,56,57,58,59,60],"skeleton":5}],"textures":[{"sampler":0,"source":0},{"sampler":0,"source":1},{"sampler":0,"source":2}]}